<svg width="24" height="24" viewBox="0 0 24 24" fill="none" xmlns="http://www.w3.org/2000/svg">
<path d="M11.75 6C11.7504 6.09854 11.7312 6.19618 11.6934 6.28719C11.6556 6.37821 11.6001 6.46076 11.53 6.53L6.05995 12L11.53 17.47C11.6624 17.6122 11.7346 17.8002 11.7311 17.9945C11.7277 18.1888 11.649 18.3742 11.5116 18.5116C11.3742 18.649 11.1888 18.7277 10.9945 18.7312C10.8002 18.7346 10.6121 18.6625 10.47 18.53L4.46995 12.53C4.3295 12.3894 4.25061 12.1988 4.25061 12C4.25061 11.8013 4.3295 11.6106 4.46995 11.47L10.47 5.47C10.6106 5.32955 10.8012 5.25066 11 5.25066C11.1987 5.25066 11.3893 5.32955 11.53 5.47C11.6001 5.53924 11.6556 5.6218 11.6934 5.71281C11.7312 5.80382 11.7504 5.90146 11.75 6Z" fill="#33302E"/>
<path d="M19.75 12C19.7474 12.1981 19.6676 12.3874 19.5275 12.5275C19.3874 12.6676 19.1981 12.7474 19 12.75L5 12.75C4.80109 12.75 4.61032 12.671 4.46967 12.5303C4.32902 12.3897 4.25 12.1989 4.25 12C4.25 11.8011 4.32902 11.6103 4.46967 11.4697C4.61032 11.329 4.80109 11.25 5 11.25H19C19.1981 11.2526 19.3874 11.3324 19.5275 11.4725C19.6676 11.6126 19.7474 11.8019 19.75 12Z" fill="#33302E"/>
</svg>
