<svg width="24" height="24" viewBox="0 0 24 24" fill="none" xmlns="http://www.w3.org/2000/svg">
<path d="M12.2499 18C12.2495 17.9015 12.2687 17.8038 12.3065 17.7128C12.3442 17.6218 12.3998 17.5392 12.4699 17.47L17.9399 12L12.4699 6.53C12.3374 6.38782 12.2653 6.19978 12.2688 6.00548C12.2722 5.81118 12.3509 5.62579 12.4883 5.48838C12.6257 5.35096 12.8111 5.27225 13.0054 5.26882C13.1997 5.2654 13.3878 5.33752 13.5299 5.47L19.5299 11.47C19.6704 11.6106 19.7493 11.8012 19.7493 12C19.7493 12.1987 19.6704 12.3894 19.5299 12.53L13.5299 18.53C13.3893 18.6705 13.1987 18.7493 12.9999 18.7493C12.8012 18.7493 12.6106 18.6705 12.4699 18.53C12.3998 18.4608 12.3442 18.3782 12.3065 18.2872C12.2687 18.1962 12.2495 18.0985 12.2499 18Z" fill="#33302E"/>
<path d="M4.25 12C4.25259 11.8019 4.33244 11.6126 4.47253 11.4725C4.61263 11.3324 4.80189 11.2526 5 11.25L19 11.25C19.1989 11.25 19.3897 11.329 19.5303 11.4697C19.671 11.6103 19.75 11.8011 19.75 12C19.75 12.1989 19.671 12.3897 19.5303 12.5303C19.3897 12.671 19.1989 12.75 19 12.75L5 12.75C4.80189 12.7474 4.61263 12.6676 4.47253 12.5275C4.33244 12.3874 4.25259 12.1981 4.25 12Z" fill="#33302E"/>
</svg>
